<svg xmlns="http://www.w3.org/2000/svg" width="860" height="300" viewBox="0 0 860 300" role="img">
  <rect width="860" height="300" rx="12" fill="#0d1117"/>
  <text x="28" y="40" font-size="19" font-weight="700" fill="#e6edf3" font-family="system-ui,-apple-system,Segoe UI,sans-serif">Plataforma de servidores de jogo</text>
  <text x="28" y="62" font-size="12.5" fill="#8b949e" font-family="system-ui,-apple-system,Segoe UI,sans-serif">infraestrutura monitorada por suite automatizada | relatorio diario</text>
  <circle cx="820" cy="36" r="6" fill="#3fb950"/>
  <text x="806" y="41" text-anchor="end" font-size="12" fill="#8b949e" font-family="system-ui,sans-serif">no ar</text>
  <g font-family="system-ui,-apple-system,Segoe UI,sans-serif">
  <g>
    <rect x="28" y="86" width="192" height="96" rx="8" fill="#161b22" stroke="#30363d"/>
    <text x="44" y="110" font-size="11" fill="#8b949e" letter-spacing="1.2">SERVIDOR</text>
    <text x="44" y="142" font-size="25" font-weight="600" fill="#3fb950">Vanilla+</text>
    <text x="44" y="164" font-size="12" fill="#8b949e">Minecraft 1.21.1</text>
  </g>
  <g>
    <rect x="235" y="86" width="192" height="96" rx="8" fill="#161b22" stroke="#30363d"/>
    <text x="251" y="110" font-size="11" fill="#8b949e" letter-spacing="1.2">JOGANDO AGORA</text>
    <text x="251" y="142" font-size="25" font-weight="600" fill="#3fb950">2</text>
    <text x="251" y="164" font-size="12" fill="#8b949e">de 16 vagas</text>
  </g>
  <g>
    <rect x="442" y="86" width="192" height="96" rx="8" fill="#161b22" stroke="#30363d"/>
    <text x="458" y="110" font-size="11" fill="#8b949e" letter-spacing="1.2">SUITE</text>
    <text x="458" y="142" font-size="25" font-weight="600" fill="#3fb950">41/41</text>
    <text x="458" y="164" font-size="12" fill="#8b949e">nenhuma falha</text>
  </g>
  <g>
    <rect x="649" y="86" width="192" height="96" rx="8" fill="#161b22" stroke="#30363d"/>
    <text x="665" y="110" font-size="11" fill="#8b949e" letter-spacing="1.2">MUNDOS</text>
    <text x="665" y="142" font-size="25" font-weight="600" fill="#58a6ff">5</text>
    <text x="665" y="164" font-size="12" fill="#8b949e">9 backups, 15.3 GB</text>
  </g>
  <text x="28" y="204" font-size="11" fill="#8b949e" letter-spacing="1.2">MUNDOS DISPONIVEIS</text>
    <rect x="28" y="216" width="99" height="26" rx="13" fill="#161b22" stroke="#d29922" stroke-opacity="0.5"/>
    <circle cx="41" cy="229" r="3.5" fill="#d29922"/>
    <text x="51" y="233" font-size="12" fill="#e6edf3">Apocalipse</text>
    <rect x="136.0" y="216" width="74" height="26" rx="13" fill="#161b22" stroke="#d29922" stroke-opacity="0.5"/>
    <circle cx="149.0" cy="229" r="3.5" fill="#d29922"/>
    <text x="159.0" y="233" font-size="12" fill="#e6edf3">Lucky</text>
    <rect x="219.0" y="216" width="74" height="26" rx="13" fill="#161b22" stroke="#d29922" stroke-opacity="0.5"/>
    <circle cx="232.0" cy="229" r="3.5" fill="#d29922"/>
    <text x="242.0" y="233" font-size="12" fill="#e6edf3">RPG</text>
    <rect x="302.0" y="216" width="84" height="26" rx="13" fill="#161b22" stroke="#3fb950" stroke-opacity="0.5"/>
    <circle cx="315.0" cy="229" r="3.5" fill="#3fb950"/>
    <text x="325.0" y="233" font-size="12" fill="#e6edf3">Vanilla+</text>
    <rect x="394.8" y="216" width="74" height="26" rx="13" fill="#161b22" stroke="#d29922" stroke-opacity="0.5"/>
    <circle cx="407.8" cy="229" r="3.5" fill="#d29922"/>
    <text x="417.8" y="233" font-size="12" fill="#e6edf3">world</text>
  <text x="28" y="264" font-size="11" fill="#8b949e">verde = entra sem instalar nada | ambar = precisa do pacote de mods</text>
  <text x="832" y="264" text-anchor="end" font-size="11" fill="#8b949e">atualizado em 08/10/2026 18:13</text>
  </g>
</svg>